<mxfile host="app.diagrams.net" agent="Mozilla/5.0 (Windows NT 10.0; Win64; x64) AppleWebKit/537.36 (KHTML, like Gecko) Chrome/138.0.0.0 Safari/537.36" version="28.0.6">
  <diagram name="Página-1" id="l9Wuipt21U6-PyX6QCcx">
    <mxGraphModel dx="1240" dy="1815" grid="1" gridSize="10" guides="1" tooltips="1" connect="1" arrows="1" fold="1" page="1" pageScale="1" pageWidth="827" pageHeight="1169" math="0" shadow="0">
      <root>
        <mxCell id="0" />
        <mxCell id="1" parent="0" />
        <mxCell id="-7PKj6kQXGnBiGMdvOyy-2" value="" style="rounded=0;whiteSpace=wrap;html=1;" vertex="1" parent="1">
          <mxGeometry x="130" y="100" width="820" height="500" as="geometry" />
        </mxCell>
        <mxCell id="-7PKj6kQXGnBiGMdvOyy-3" value="" style="rounded=1;whiteSpace=wrap;html=1;" vertex="1" parent="1">
          <mxGeometry x="184" y="180" width="230" height="150" as="geometry" />
        </mxCell>
        <mxCell id="-7PKj6kQXGnBiGMdvOyy-4" value="" style="rounded=1;whiteSpace=wrap;html=1;" vertex="1" parent="1">
          <mxGeometry x="440" y="180" width="230" height="150" as="geometry" />
        </mxCell>
        <mxCell id="-7PKj6kQXGnBiGMdvOyy-5" value="" style="rounded=1;whiteSpace=wrap;html=1;" vertex="1" parent="1">
          <mxGeometry x="690" y="180" width="230" height="150" as="geometry" />
        </mxCell>
        <mxCell id="-7PKj6kQXGnBiGMdvOyy-6" value="&lt;h1 style=&quot;margin-top: 0px;&quot;&gt;Criar Reuniões&lt;/h1&gt;&lt;div&gt;Clicando aqui você pode criar e iniciar reuniões, posteriormente compartilhar as que foram criadas.&lt;/div&gt;" style="text;html=1;whiteSpace=wrap;overflow=hidden;rounded=0;align=center;" vertex="1" parent="1">
          <mxGeometry x="199" y="195" width="200" height="120" as="geometry" />
        </mxCell>
        <mxCell id="-7PKj6kQXGnBiGMdvOyy-7" value="&lt;h1 style=&quot;margin-top: 0px;&quot;&gt;Lista de Reuniões&lt;/h1&gt;&lt;p&gt;Clicando aqui você pode abrir uma lista com as reuniões disponíveis para participar ou iniciar que você foi convidado ou que você criou.&lt;/p&gt;" style="text;html=1;whiteSpace=wrap;overflow=hidden;rounded=0;align=center;" vertex="1" parent="1">
          <mxGeometry x="450" y="195" width="210" height="120" as="geometry" />
        </mxCell>
        <mxCell id="-7PKj6kQXGnBiGMdvOyy-9" value="" style="rounded=0;whiteSpace=wrap;html=1;" vertex="1" parent="1">
          <mxGeometry x="130" y="640" width="820" height="500" as="geometry" />
        </mxCell>
        <mxCell id="-7PKj6kQXGnBiGMdvOyy-10" value="" style="rounded=0;whiteSpace=wrap;html=1;" vertex="1" parent="1">
          <mxGeometry x="130" y="640" width="820" height="60" as="geometry" />
        </mxCell>
        <mxCell id="-7PKj6kQXGnBiGMdvOyy-11" value="&lt;font style=&quot;font-size: 20px;&quot;&gt;&lt;b&gt;Lista das Reuniões&lt;/b&gt;&lt;/font&gt;" style="text;html=1;align=center;verticalAlign=middle;whiteSpace=wrap;rounded=0;fontSize=15;" vertex="1" parent="1">
          <mxGeometry x="130" y="640" width="820" height="60" as="geometry" />
        </mxCell>
        <mxCell id="-7PKj6kQXGnBiGMdvOyy-14" value="Reuniões que você foi convidado" style="text;html=1;align=center;verticalAlign=middle;whiteSpace=wrap;rounded=0;fontSize=15;" vertex="1" parent="1">
          <mxGeometry x="430" y="930" width="230" height="30" as="geometry" />
        </mxCell>
        <mxCell id="-7PKj6kQXGnBiGMdvOyy-15" value="Reuniões que você criou" style="text;html=1;align=center;verticalAlign=middle;whiteSpace=wrap;rounded=0;fontSize=15;" vertex="1" parent="1">
          <mxGeometry x="430" y="710" width="230" height="30" as="geometry" />
        </mxCell>
        <mxCell id="-7PKj6kQXGnBiGMdvOyy-16" value="" style="rounded=0;whiteSpace=wrap;html=1;" vertex="1" parent="1">
          <mxGeometry x="130" y="100" width="820" height="60" as="geometry" />
        </mxCell>
        <mxCell id="-7PKj6kQXGnBiGMdvOyy-20" value="" style="rounded=1;whiteSpace=wrap;html=1;" vertex="1" parent="1">
          <mxGeometry x="167.5" y="750" width="742.5" height="150" as="geometry" />
        </mxCell>
        <mxCell id="-7PKj6kQXGnBiGMdvOyy-19" value="" style="rounded=1;whiteSpace=wrap;html=1;" vertex="1" parent="1">
          <mxGeometry x="680" y="750" width="230" height="150" as="geometry" />
        </mxCell>
        <mxCell id="-7PKj6kQXGnBiGMdvOyy-18" value="" style="rounded=1;whiteSpace=wrap;html=1;" vertex="1" parent="1">
          <mxGeometry x="425" y="750" width="230" height="150" as="geometry" />
        </mxCell>
        <mxCell id="-7PKj6kQXGnBiGMdvOyy-17" value="" style="rounded=1;whiteSpace=wrap;html=1;" vertex="1" parent="1">
          <mxGeometry x="165" y="750" width="230" height="150" as="geometry" />
        </mxCell>
        <mxCell id="-7PKj6kQXGnBiGMdvOyy-21" value="" style="rounded=1;whiteSpace=wrap;html=1;" vertex="1" parent="1">
          <mxGeometry x="165" y="970" width="742.5" height="150" as="geometry" />
        </mxCell>
        <mxCell id="-7PKj6kQXGnBiGMdvOyy-22" value="" style="rounded=1;whiteSpace=wrap;html=1;" vertex="1" parent="1">
          <mxGeometry x="680" y="970" width="230" height="150" as="geometry" />
        </mxCell>
        <mxCell id="-7PKj6kQXGnBiGMdvOyy-23" value="" style="rounded=1;whiteSpace=wrap;html=1;" vertex="1" parent="1">
          <mxGeometry x="425" y="970" width="230" height="150" as="geometry" />
        </mxCell>
        <mxCell id="-7PKj6kQXGnBiGMdvOyy-24" value="" style="rounded=1;whiteSpace=wrap;html=1;" vertex="1" parent="1">
          <mxGeometry x="160" y="970" width="230" height="150" as="geometry" />
        </mxCell>
        <mxCell id="-7PKj6kQXGnBiGMdvOyy-26" value="" style="rounded=1;whiteSpace=wrap;html=1;" vertex="1" parent="1">
          <mxGeometry x="300" y="870" width="70" height="20" as="geometry" />
        </mxCell>
        <mxCell id="-7PKj6kQXGnBiGMdvOyy-27" value="" style="rounded=1;whiteSpace=wrap;html=1;" vertex="1" parent="1">
          <mxGeometry x="199" y="870" width="70" height="20" as="geometry" />
        </mxCell>
        <mxCell id="-7PKj6kQXGnBiGMdvOyy-28" value="Iniciar" style="text;html=1;align=center;verticalAlign=middle;whiteSpace=wrap;rounded=0;" vertex="1" parent="1">
          <mxGeometry x="204" y="865" width="60" height="30" as="geometry" />
        </mxCell>
        <mxCell id="-7PKj6kQXGnBiGMdvOyy-29" value="Compartilhar" style="text;html=1;align=center;verticalAlign=middle;whiteSpace=wrap;rounded=0;" vertex="1" parent="1">
          <mxGeometry x="305" y="865" width="60" height="30" as="geometry" />
        </mxCell>
        <mxCell id="-7PKj6kQXGnBiGMdvOyy-30" value="" style="rounded=1;whiteSpace=wrap;html=1;" vertex="1" parent="1">
          <mxGeometry x="450" y="870" width="70" height="20" as="geometry" />
        </mxCell>
        <mxCell id="-7PKj6kQXGnBiGMdvOyy-31" value="" style="rounded=1;whiteSpace=wrap;html=1;" vertex="1" parent="1">
          <mxGeometry x="560" y="870" width="70" height="20" as="geometry" />
        </mxCell>
        <mxCell id="-7PKj6kQXGnBiGMdvOyy-32" value="" style="rounded=1;whiteSpace=wrap;html=1;" vertex="1" parent="1">
          <mxGeometry x="710" y="870" width="70" height="20" as="geometry" />
        </mxCell>
        <mxCell id="-7PKj6kQXGnBiGMdvOyy-33" value="" style="rounded=1;whiteSpace=wrap;html=1;" vertex="1" parent="1">
          <mxGeometry x="810" y="870" width="70" height="20" as="geometry" />
        </mxCell>
        <mxCell id="-7PKj6kQXGnBiGMdvOyy-34" value="" style="rounded=1;whiteSpace=wrap;html=1;" vertex="1" parent="1">
          <mxGeometry x="810" y="1090" width="70" height="20" as="geometry" />
        </mxCell>
        <mxCell id="-7PKj6kQXGnBiGMdvOyy-35" value="" style="rounded=1;whiteSpace=wrap;html=1;" vertex="1" parent="1">
          <mxGeometry x="710" y="1090" width="70" height="20" as="geometry" />
        </mxCell>
        <mxCell id="-7PKj6kQXGnBiGMdvOyy-36" value="" style="rounded=1;whiteSpace=wrap;html=1;" vertex="1" parent="1">
          <mxGeometry x="450" y="1090" width="70" height="20" as="geometry" />
        </mxCell>
        <mxCell id="-7PKj6kQXGnBiGMdvOyy-37" value="" style="rounded=1;whiteSpace=wrap;html=1;" vertex="1" parent="1">
          <mxGeometry x="300" y="1090" width="70" height="20" as="geometry" />
        </mxCell>
        <mxCell id="-7PKj6kQXGnBiGMdvOyy-38" value="" style="rounded=1;whiteSpace=wrap;html=1;" vertex="1" parent="1">
          <mxGeometry x="560" y="1090" width="70" height="20" as="geometry" />
        </mxCell>
        <mxCell id="-7PKj6kQXGnBiGMdvOyy-39" value="" style="rounded=1;whiteSpace=wrap;html=1;" vertex="1" parent="1">
          <mxGeometry x="199" y="1090" width="70" height="20" as="geometry" />
        </mxCell>
        <mxCell id="-7PKj6kQXGnBiGMdvOyy-41" value="Iniciar" style="text;html=1;align=center;verticalAlign=middle;whiteSpace=wrap;rounded=0;" vertex="1" parent="1">
          <mxGeometry x="455" y="865" width="60" height="30" as="geometry" />
        </mxCell>
        <mxCell id="-7PKj6kQXGnBiGMdvOyy-42" value="Iniciar" style="text;html=1;align=center;verticalAlign=middle;whiteSpace=wrap;rounded=0;" vertex="1" parent="1">
          <mxGeometry x="715" y="865" width="60" height="30" as="geometry" />
        </mxCell>
        <mxCell id="-7PKj6kQXGnBiGMdvOyy-45" value="Compartilhar" style="text;html=1;align=center;verticalAlign=middle;whiteSpace=wrap;rounded=0;" vertex="1" parent="1">
          <mxGeometry x="565" y="865" width="60" height="30" as="geometry" />
        </mxCell>
        <mxCell id="-7PKj6kQXGnBiGMdvOyy-46" value="Compartilhar" style="text;html=1;align=center;verticalAlign=middle;whiteSpace=wrap;rounded=0;" vertex="1" parent="1">
          <mxGeometry x="815" y="865" width="60" height="30" as="geometry" />
        </mxCell>
        <mxCell id="-7PKj6kQXGnBiGMdvOyy-47" value="Compartilhar" style="text;html=1;align=center;verticalAlign=middle;whiteSpace=wrap;rounded=0;" vertex="1" parent="1">
          <mxGeometry x="305" y="1085" width="60" height="30" as="geometry" />
        </mxCell>
        <mxCell id="-7PKj6kQXGnBiGMdvOyy-48" value="Compartilhar" style="text;html=1;align=center;verticalAlign=middle;whiteSpace=wrap;rounded=0;" vertex="1" parent="1">
          <mxGeometry x="565" y="1085" width="60" height="30" as="geometry" />
        </mxCell>
        <mxCell id="-7PKj6kQXGnBiGMdvOyy-49" value="Compartilhar" style="text;html=1;align=center;verticalAlign=middle;whiteSpace=wrap;rounded=0;" vertex="1" parent="1">
          <mxGeometry x="815" y="1085" width="60" height="30" as="geometry" />
        </mxCell>
        <mxCell id="-7PKj6kQXGnBiGMdvOyy-50" value="Entrar" style="text;html=1;align=center;verticalAlign=middle;whiteSpace=wrap;rounded=0;" vertex="1" parent="1">
          <mxGeometry x="204" y="1085" width="60" height="30" as="geometry" />
        </mxCell>
        <mxCell id="-7PKj6kQXGnBiGMdvOyy-51" value="Entrar" style="text;html=1;align=center;verticalAlign=middle;whiteSpace=wrap;rounded=0;" vertex="1" parent="1">
          <mxGeometry x="455" y="1085" width="60" height="30" as="geometry" />
        </mxCell>
        <mxCell id="-7PKj6kQXGnBiGMdvOyy-52" value="Entrar" style="text;html=1;align=center;verticalAlign=middle;whiteSpace=wrap;rounded=0;" vertex="1" parent="1">
          <mxGeometry x="715" y="1085" width="60" height="30" as="geometry" />
        </mxCell>
        <mxCell id="-7PKj6kQXGnBiGMdvOyy-53" value="" style="rounded=0;whiteSpace=wrap;html=1;" vertex="1" parent="1">
          <mxGeometry x="128.75" y="-450" width="820" height="500" as="geometry" />
        </mxCell>
        <mxCell id="-7PKj6kQXGnBiGMdvOyy-54" value="" style="rounded=1;whiteSpace=wrap;html=1;" vertex="1" parent="1">
          <mxGeometry x="385" y="-400" width="300" height="390" as="geometry" />
        </mxCell>
        <mxCell id="-7PKj6kQXGnBiGMdvOyy-55" value="" style="rounded=1;whiteSpace=wrap;html=1;" vertex="1" parent="1">
          <mxGeometry x="385" y="-410" width="300" height="60" as="geometry" />
        </mxCell>
        <mxCell id="-7PKj6kQXGnBiGMdvOyy-56" value="Iniciando uma sessão" style="text;html=1;align=center;verticalAlign=middle;whiteSpace=wrap;rounded=0;fontSize=20;" vertex="1" parent="1">
          <mxGeometry x="420" y="-395" width="230" height="30" as="geometry" />
        </mxCell>
        <mxCell id="-7PKj6kQXGnBiGMdvOyy-57" value="Insira o seu nome completo" style="text;html=1;align=center;verticalAlign=middle;whiteSpace=wrap;rounded=0;" vertex="1" parent="1">
          <mxGeometry x="456.75" y="-310" width="164" height="30" as="geometry" />
        </mxCell>
        <mxCell id="-7PKj6kQXGnBiGMdvOyy-59" value="" style="rounded=1;whiteSpace=wrap;html=1;" vertex="1" parent="1">
          <mxGeometry x="420" y="-280" width="230" height="20" as="geometry" />
        </mxCell>
        <mxCell id="-7PKj6kQXGnBiGMdvOyy-60" value="" style="rounded=1;whiteSpace=wrap;html=1;" vertex="1" parent="1">
          <mxGeometry x="468.12" y="-100" width="133.75" height="40" as="geometry" />
        </mxCell>
        <mxCell id="-7PKj6kQXGnBiGMdvOyy-61" value="" style="whiteSpace=wrap;html=1;shape=mxgraph.basic.cloud_callout" vertex="1" parent="1">
          <mxGeometry x="650" y="-370" width="250" height="90" as="geometry" />
        </mxCell>
        <mxCell id="-7PKj6kQXGnBiGMdvOyy-62" value="Campo de texto" style="text;html=1;align=center;verticalAlign=middle;whiteSpace=wrap;rounded=0;" vertex="1" parent="1">
          <mxGeometry x="745" y="-350" width="60" height="30" as="geometry" />
        </mxCell>
        <mxCell id="-7PKj6kQXGnBiGMdvOyy-63" value="Entrar" style="text;html=1;align=center;verticalAlign=middle;whiteSpace=wrap;rounded=0;" vertex="1" parent="1">
          <mxGeometry x="505" y="-95" width="60" height="30" as="geometry" />
        </mxCell>
        <mxCell id="-7PKj6kQXGnBiGMdvOyy-64" value="Título da reunião" style="text;html=1;align=center;verticalAlign=middle;whiteSpace=wrap;rounded=0;" vertex="1" parent="1">
          <mxGeometry x="217.5" y="760" width="115" height="30" as="geometry" />
        </mxCell>
        <mxCell id="-7PKj6kQXGnBiGMdvOyy-65" value="Título da reunião" style="text;html=1;align=center;verticalAlign=middle;whiteSpace=wrap;rounded=0;" vertex="1" parent="1">
          <mxGeometry x="478.75" y="760" width="115" height="30" as="geometry" />
        </mxCell>
        <mxCell id="-7PKj6kQXGnBiGMdvOyy-66" value="Título da reunião" style="text;html=1;align=center;verticalAlign=middle;whiteSpace=wrap;rounded=0;" vertex="1" parent="1">
          <mxGeometry x="737.5" y="760" width="115" height="30" as="geometry" />
        </mxCell>
        <mxCell id="-7PKj6kQXGnBiGMdvOyy-67" value="Título da reunião" style="text;html=1;align=center;verticalAlign=middle;whiteSpace=wrap;rounded=0;" vertex="1" parent="1">
          <mxGeometry x="745" y="980" width="115" height="30" as="geometry" />
        </mxCell>
        <mxCell id="-7PKj6kQXGnBiGMdvOyy-68" value="Título da reunião" style="text;html=1;align=center;verticalAlign=middle;whiteSpace=wrap;rounded=0;" vertex="1" parent="1">
          <mxGeometry x="477.5" y="980" width="115" height="30" as="geometry" />
        </mxCell>
        <mxCell id="-7PKj6kQXGnBiGMdvOyy-69" value="Título da reunião" style="text;html=1;align=center;verticalAlign=middle;whiteSpace=wrap;rounded=0;" vertex="1" parent="1">
          <mxGeometry x="217.5" y="980" width="115" height="30" as="geometry" />
        </mxCell>
        <mxCell id="-7PKj6kQXGnBiGMdvOyy-70" value="&lt;b&gt;Arraste para ver mais&lt;/b&gt;" style="text;html=1;align=center;verticalAlign=middle;whiteSpace=wrap;rounded=0;" vertex="1" parent="1">
          <mxGeometry x="767.5" y="720" width="140" height="30" as="geometry" />
        </mxCell>
        <mxCell id="-7PKj6kQXGnBiGMdvOyy-71" value="&lt;b&gt;Arraste para ver mais&lt;/b&gt;" style="text;html=1;align=center;verticalAlign=middle;whiteSpace=wrap;rounded=0;" vertex="1" parent="1">
          <mxGeometry x="767.5" y="940" width="140" height="30" as="geometry" />
        </mxCell>
        <mxCell id="-7PKj6kQXGnBiGMdvOyy-73" value="" style="rounded=1;whiteSpace=wrap;html=1;" vertex="1" parent="1">
          <mxGeometry x="213" y="1015" width="120" height="60" as="geometry" />
        </mxCell>
        <mxCell id="-7PKj6kQXGnBiGMdvOyy-74" value="" style="rounded=1;whiteSpace=wrap;html=1;" vertex="1" parent="1">
          <mxGeometry x="479" y="1015" width="120" height="60" as="geometry" />
        </mxCell>
        <mxCell id="-7PKj6kQXGnBiGMdvOyy-75" value="" style="rounded=1;whiteSpace=wrap;html=1;" vertex="1" parent="1">
          <mxGeometry x="743" y="1015" width="120" height="60" as="geometry" />
        </mxCell>
        <mxCell id="-7PKj6kQXGnBiGMdvOyy-76" value="" style="rounded=1;whiteSpace=wrap;html=1;" vertex="1" parent="1">
          <mxGeometry x="220" y="795" width="120" height="60" as="geometry" />
        </mxCell>
        <mxCell id="-7PKj6kQXGnBiGMdvOyy-77" value="" style="rounded=1;whiteSpace=wrap;html=1;" vertex="1" parent="1">
          <mxGeometry x="476" y="795" width="120" height="60" as="geometry" />
        </mxCell>
        <mxCell id="-7PKj6kQXGnBiGMdvOyy-78" value="" style="rounded=1;whiteSpace=wrap;html=1;" vertex="1" parent="1">
          <mxGeometry x="735" y="795" width="120" height="60" as="geometry" />
        </mxCell>
        <mxCell id="-7PKj6kQXGnBiGMdvOyy-79" value="Data e hora da reunião" style="text;html=1;align=center;verticalAlign=middle;whiteSpace=wrap;rounded=0;" vertex="1" parent="1">
          <mxGeometry x="245" y="810" width="70" height="30" as="geometry" />
        </mxCell>
        <mxCell id="-7PKj6kQXGnBiGMdvOyy-80" value="Data e hora da reunião" style="text;html=1;align=center;verticalAlign=middle;whiteSpace=wrap;rounded=0;" vertex="1" parent="1">
          <mxGeometry x="510" y="810" width="70" height="30" as="geometry" />
        </mxCell>
        <mxCell id="-7PKj6kQXGnBiGMdvOyy-81" value="Data e hora da reunião" style="text;html=1;align=center;verticalAlign=middle;whiteSpace=wrap;rounded=0;" vertex="1" parent="1">
          <mxGeometry x="772.5" y="810" width="67.5" height="30" as="geometry" />
        </mxCell>
        <mxCell id="-7PKj6kQXGnBiGMdvOyy-82" value="Data e hora da reunião" style="text;html=1;align=center;verticalAlign=middle;whiteSpace=wrap;rounded=0;" vertex="1" parent="1">
          <mxGeometry x="775" y="1030" width="65" height="30" as="geometry" />
        </mxCell>
        <mxCell id="-7PKj6kQXGnBiGMdvOyy-83" value="Data e hora da reunião" style="text;html=1;align=center;verticalAlign=middle;whiteSpace=wrap;rounded=0;" vertex="1" parent="1">
          <mxGeometry x="503.75" y="1030" width="70" height="30" as="geometry" />
        </mxCell>
        <mxCell id="-7PKj6kQXGnBiGMdvOyy-84" value="Data e hora da reunião" style="text;html=1;align=center;verticalAlign=middle;whiteSpace=wrap;rounded=0;" vertex="1" parent="1">
          <mxGeometry x="237.5" y="1030" width="75" height="30" as="geometry" />
        </mxCell>
        <mxCell id="-7PKj6kQXGnBiGMdvOyy-85" value="" style="rounded=0;whiteSpace=wrap;html=1;" vertex="1" parent="1">
          <mxGeometry x="130" y="1180" width="820" height="500" as="geometry" />
        </mxCell>
        <mxCell id="-7PKj6kQXGnBiGMdvOyy-87" value="&lt;font style=&quot;font-size: 20px;&quot;&gt;&lt;b&gt;Menu inicial&lt;/b&gt;&lt;/font&gt;" style="text;html=1;align=center;verticalAlign=middle;whiteSpace=wrap;rounded=0;fontSize=15;" vertex="1" parent="1">
          <mxGeometry x="130" y="100" width="820" height="60" as="geometry" />
        </mxCell>
        <mxCell id="-7PKj6kQXGnBiGMdvOyy-88" value="" style="rounded=1;whiteSpace=wrap;html=1;" vertex="1" parent="1">
          <mxGeometry x="730" y="525" width="210" height="60" as="geometry" />
        </mxCell>
        <mxCell id="-7PKj6kQXGnBiGMdvOyy-89" value="Seus dados&lt;div&gt;&lt;br&gt;&lt;/div&gt;" style="text;html=1;align=center;verticalAlign=middle;whiteSpace=wrap;rounded=0;" vertex="1" parent="1">
          <mxGeometry x="792" y="540" width="83" height="30" as="geometry" />
        </mxCell>
      </root>
    </mxGraphModel>
  </diagram>
</mxfile>
